HIERARCHY
ROOT hip
{
  OFFSET 0 0 0
  CHANNELS 6 Xposition Yposition Zposition Zrotation Yrotation Xrotation
  JOINT abdomen
  {
    OFFSET 0 20.6881 -0.73152
    CHANNELS 3 Zrotation Xrotation Yrotation
    JOINT chest
    {
      OFFSET 0 11.7043 -0.48768
      CHANNELS 3 Zrotation Xrotation Yrotation
      JOINT neck
      {
        OFFSET 0 22.1894 -2.19456
        CHANNELS 3 Zrotation Xrotation Yrotation
        JOINT head
        {
          OFFSET -0.24384 7.07133 1.2192
          CHANNELS 3 Zrotation Xrotation Yrotation
          JOINT leftEye
          {
            OFFSET 4.14528 8.04674 8.04672
            CHANNELS 3 Zrotation Xrotation Yrotation
            End Site
            {
              OFFSET 1 0 0
            }
          }
          JOINT rightEye
          {
            OFFSET -3.6576 8.04674 8.04672
            CHANNELS 3 Zrotation Xrotation Yrotation
            End Site
            {
              OFFSET 1 0 0
            }
          }
        }
      }
      JOINT rCollar
      {
        OFFSET -2.68224 19.2634 -4.8768
        CHANNELS 3 Zrotation Xrotation Yrotation
        JOINT rShldr
        {
          OFFSET -8.77824 -1.95073 1.46304
          CHANNELS 3 Zrotation Xrotation Yrotation
          JOINT rForeArm
          {
            OFFSET -28.1742 -1.7115 0.48768
            CHANNELS 3 Zrotation Xrotation Yrotation
            JOINT rHand
            {
              OFFSET -22.5879 0.773209 7.07136
              CHANNELS 3 Zrotation Xrotation Yrotation
              JOINT rThumb1
              {
                OFFSET -1.2192 -0.487915 3.41376
                CHANNELS 3 Zrotation Xrotation Yrotation
                JOINT rThumb2
                {
                  OFFSET -3.37035 -0.52449 3.41376
                  CHANNELS 3 Zrotation Xrotation Yrotation
                  End Site
                  {
                    OFFSET -1.78271 -1.18214 1.43049
                  }
                }
              }
              JOINT rIndex1
              {
                OFFSET -7.75947 0.938293 5.60832
                CHANNELS 3 Zrotation Xrotation Yrotation
                JOINT rIndex2
                {
                  OFFSET -2.54057 -0.884171 1.56538
                  CHANNELS 3 Zrotation Xrotation Yrotation
                  End Site
                  {
                    OFFSET -1.62519 -0.234802 1.16502
                  }
                }
              }
              JOINT rMid1
              {
                OFFSET -8.24714 1.18213 3.41376
                CHANNELS 3 Zrotation Xrotation Yrotation
                JOINT rMid2
                {
                  OFFSET -3.10165 -0.590103 1.0647
                  CHANNELS 3 Zrotation Xrotation Yrotation
                  End Site
                  {
                    OFFSET -2.48547 -0.328903 0.83742
                  }
                }
              }
              JOINT rRing1
              {
                OFFSET -8.82822 0.546677 1.51678
                CHANNELS 3 Zrotation Xrotation Yrotation
                JOINT rRing2
                {
                  OFFSET -2.60934 -0.819778 -0.0198488
                  CHANNELS 3 Zrotation Xrotation Yrotation
                  End Site
                  {
                    OFFSET -2.33842 -0.294052 0.168128
                  }
                }
              }
              JOINT rPinky1
              {
                OFFSET -8.27202 -0.0477905 -0.4584
                CHANNELS 3 Zrotation Xrotation Yrotation
                JOINT rPinky2
                {
                  OFFSET -1.82734 -0.647385 -0.700984
                  CHANNELS 3 Zrotation Xrotation Yrotation
                  End Site
                  {
                    OFFSET -1.69225 -0.51767 -0.607171
                  }
                }
              }
            }
          }
        }
      }
      JOINT lCollar
      {
        OFFSET 2.68224 19.2634 -4.8768
        CHANNELS 3 Zrotation Xrotation Yrotation
        JOINT lShldr
        {
          OFFSET 8.77824 -1.95073 1.46304
          CHANNELS 3 Zrotation Xrotation Yrotation
          JOINT lForeArm
          {
            OFFSET 28.1742 -1.7115 0.48768
            CHANNELS 3 Zrotation Xrotation Yrotation
            JOINT lHand
            {
              OFFSET 22.5879 0.773209 7.07136
              CHANNELS 3 Zrotation Xrotation Yrotation
              JOINT lThumb1
              {
                OFFSET 1.2192 -0.487915 3.41376
                CHANNELS 3 Zrotation Xrotation Yrotation
                JOINT lThumb2
                {
                  OFFSET 3.37035 -0.52449 3.41376
                  CHANNELS 3 Zrotation Xrotation Yrotation
                  End Site
                  {
                    OFFSET 1.78271 -1.18214 1.43049
                  }
                }
              }
              JOINT lIndex1
              {
                OFFSET 7.75947 0.938293 5.60832
                CHANNELS 3 Zrotation Xrotation Yrotation
                JOINT lIndex2
                {
                  OFFSET 2.54057 -0.884171 1.56538
                  CHANNELS 3 Zrotation Xrotation Yrotation
                  End Site
                  {
                    OFFSET 1.62519 -0.234802 1.16502
                  }
                }
              }
              JOINT lMid1
              {
                OFFSET 8.24714 1.18213 3.41376
                CHANNELS 3 Zrotation Xrotation Yrotation
                JOINT lMid2
                {
                  OFFSET 3.10165 -0.590103 1.0647
                  CHANNELS 3 Zrotation Xrotation Yrotation
                  End Site
                  {
                    OFFSET 2.48547 -0.328903 0.83742
                  }
                }
              }
              JOINT lRing1
              {
                OFFSET 8.82822 0.546677 1.51678
                CHANNELS 3 Zrotation Xrotation Yrotation
                JOINT lRing2
                {
                  OFFSET 2.60934 -0.819778 -0.0198488
                  CHANNELS 3 Zrotation Xrotation Yrotation
                  End Site
                  {
                    OFFSET 2.33842 -0.294052 0.168128
                  }
                }
              }
              JOINT lPinky1
              {
                OFFSET 8.27202 -0.0477905 -0.4584
                CHANNELS 3 Zrotation Xrotation Yrotation
                JOINT lPinky2
                {
                  OFFSET 1.82734 -0.647385 -0.700984
                  CHANNELS 3 Zrotation Xrotation Yrotation
                  End Site
                  {
                    OFFSET 1.69225 -0.51767 -0.607171
                  }
                }
              }
            }
          }
        }
      }
    }
  }
  JOINT rButtock
  {
    OFFSET -8.77824 4.35084 1.2192
    CHANNELS 3 Zrotation Xrotation Yrotation
    JOINT rThigh
    {
      OFFSET 0 -1.70687 -2.19456
      CHANNELS 3 Zrotation Xrotation Yrotation
      JOINT rShin
      {
        OFFSET 0 -36.8199 0.73152
        CHANNELS 3 Zrotation Xrotation Yrotation
        JOINT rFoot
        {
          OFFSET 0.73152 -45.1104 -5.12064
          CHANNELS 3 Zrotation Xrotation Yrotation
          End Site
          {
            OFFSET -1.1221 -3.69964 12.103
          }
        }
      }
    }
  }
  JOINT lButtock
  {
    OFFSET 8.77824 4.35084 1.2192
    CHANNELS 3 Zrotation Xrotation Yrotation
    JOINT lThigh
    {
      OFFSET 0 -1.70687 -2.19456
      CHANNELS 3 Zrotation Xrotation Yrotation
      JOINT lShin
      {
        OFFSET 0 -36.8199 0.73152
        CHANNELS 3 Zrotation Xrotation Yrotation
        JOINT lFoot
        {
          OFFSET -0.73152 -45.1104 -5.12064
          CHANNELS 3 Zrotation Xrotation Yrotation
          End Site
          {
            OFFSET 1.1221 -3.69964 12.103
          }
        }
      }
    }
  }
}
MOTION
Frames:	5
Frame Time:	0.00833333
54.4242 118.882 5.66231 2.0647 -4.2549 -1.9686 -3.87438 13.4519 -2.14815 2.60941 -4.06789 -0.627773 -8.12137 0.617347 -2.01618 7.99806 7.18108 -2.37149 -0.0 0.0 0.0 -0.0 0.0 0.0 -1.07851e-14 -1.09356e-13 -7.48013e-14 75.1331 18.7773 0.946449 -16.5694 -9.2272 30.8843 -0.189762 -12.3182 -1.75865 5.32969e-10 -1.22097e-09 2.57211e-10 9.21278e-10 -2.11052e-09 4.48387e-10 5.32982e-10 -1.22097e-09 2.57203e-10 7.73091 5.47488 0.417314 5.32968e-10 -1.22097e-09 2.5721e-10 2.90554 0.965183 0.102902 5.32974e-10 -1.22097e-09 2.57214e-10 10.2786 0.731801 0.0259123 5.32961e-10 -1.22097e-09 2.57221e-10 2.22167 -0.733487 -0.20892 -1.09798e-14 -1.09358e-13 -7.50101e-14 -77.9278 21.6208 0.0231459 18.0107 -10.6983 -34.0437 0.0321861 -5.20991 0.734117 -2.13285e-10 -9.78706e-10 -1.58733e-11 -3.71263e-10 -1.69561e-09 -2.68607e-11 -2.13289e-10 -9.78708e-10 -1.58729e-11 -7.73091 5.47488 -0.417314 -2.13285e-10 -9.78708e-10 -1.58712e-11 -2.90554 0.965183 -0.102902 -2.13292e-10 -9.78707e-10 -1.58747e-11 -10.2786 0.731801 -0.0259123 -2.13282e-10 -9.78703e-10 -1.58819e-11 -2.22167 -0.733487 0.20892 -2.03217e-16 0.0 -3.88251e-19 -11.1442 -54.5254 -13.5983 -2.05419 69.9337 2.4744 -0.924098 3.03237 -2.89801 2.03217e-16 0.0 3.88251e-19 -8.43579 -5.83584 -2.68992 0.0777349 33.8042 -1.1685 1.15096 -21.2597 0.786171
54.4375 118.851 6.46032 2.2094 -3.9663 -2.0828 -3.70155 13.216 -2.40134 2.64497 -3.95176 -0.689604 -8.08393 0.762823 -2.02478 7.94025 7.18646 -2.41639 -0.0 0.0 0.0 -0.0 0.0 0.0 -5.04105e-14 -1.2404e-13 -3.6477e-14 75.1958 18.7 0.524032 -16.5747 -9.23242 30.8956 -0.194748 -12.4747 -1.78173 7.86823e-10 -1.12178e-09 5.35122e-10 1.35721e-09 -1.9341e-09 9.31674e-10 7.86836e-10 -1.12178e-09 5.35116e-10 7.73091 5.47488 0.417314 7.86822e-10 -1.12177e-09 5.35122e-10 2.90554 0.965183 0.102902 7.86827e-10 -1.12178e-09 5.35126e-10 10.2786 0.731801 0.0259123 7.86814e-10 -1.12177e-09 5.35131e-10 2.22167 -0.733487 -0.20892 -5.05754e-14 -1.24044e-13 -3.66758e-14 -77.9585 21.7088 0.0461127 18.118 -10.8141 -34.2855 0.0253573 -4.54098 0.639546 -1.47322e-10 -1.20231e-09 1.4018e-10 -2.5929e-10 -2.08515e-09 2.43727e-10 -1.47326e-10 -1.20231e-09 1.4018e-10 -7.73091 5.47488 -0.417314 -1.47322e-10 -1.20231e-09 1.40183e-10 -2.90554 0.965183 -0.102902 -1.47328e-10 -1.20231e-09 1.4018e-10 -10.2786 0.731801 -0.0259123 -1.47319e-10 -1.2023e-09 1.40173e-10 -2.22167 -0.733487 0.20892 -2.03217e-16 0.0 -3.88251e-19 -10.7138 -53.6713 -13.368 -1.70023 67.2007 2.10733 -0.848589 4.23048 -2.88025 2.03217e-16 0.0 3.88251e-19 -8.31856 -4.98889 -2.66969 0.0747164 33.6081 -1.17968 1.05589 -21.5762 0.556683
54.3966 118.791 7.27423 2.0747 -3.5547 -2.2464 -3.42806 13.0104 -2.6696 2.68791 -3.85126 -0.752573 -8.03907 0.864136 -2.0462 7.8329 7.27301 -2.48452 -0.0 0.0 0.0 -0.0 0.0 0.0 -6.77287e-14 -8.96506e-14 -1.13094e-14 75.2481 18.5542 0.0883956 -16.6021 -9.25904 30.9543 -0.198058 -12.576 -1.79669 7.61892e-10 -8.22274e-10 4.84586e-10 1.31382e-09 -1.41571e-09 8.4445e-10 7.61903e-10 -8.22276e-10 4.84578e-10 7.73091 5.47488 0.417314 7.61891e-10 -8.22272e-10 4.84588e-10 2.90554 0.965183 0.102902 7.61896e-10 -8.22273e-10 4.8459e-10 10.2786 0.731801 0.0259123 7.61883e-10 -8.22271e-10 4.84595e-10 2.22167 -0.733487 -0.20892 -6.78625e-14 -8.96542e-14 -1.15035e-14 -77.9949 21.8836 0.0514425 18.2227 -10.9283 -34.5212 0.0199419 -3.95311 0.556544 -8.68054e-11 -8.99174e-10 1.25489e-10 -1.54447e-10 -1.56046e-09 2.17898e-10 -8.68108e-11 -8.99174e-10 1.25491e-10 -7.73091 5.47488 -0.417314 -8.68059e-11 -8.99174e-10 1.25492e-10 -2.90554 0.965183 -0.102902 -8.68108e-11 -8.99173e-10 1.2549e-10 -10.2786 0.731801 -0.0259123 -8.68034e-11 -8.9917e-10 1.25484e-10 -2.22167 -0.733487 0.20892 -2.03217e-16 0.0 -3.88251e-19 -10.2423 -52.7492 -13.1494 -1.41768 64.391 1.80777 -0.763442 5.63946 -2.88844 2.03217e-16 0.0 3.88251e-19 -8.05956 -4.18724 -2.58997 0.0733355 33.4977 -1.19097 0.932965 -21.9521 0.272787
54.392 118.657 8.08484 2.0984 -3.1658 -2.4364 -3.07932 12.8267 -2.94846 2.72941 -3.76086 -0.81663 -7.98601 0.939195 -2.07677 7.695 7.40552 -2.57011 -0.0 0.0 0.0 -0.0 0.0 0.0 -7.42488e-14 -2.36544e-14 8.24646e-15 75.2961 18.3636 -0.359276 -16.6428 -9.29859 31.0416 -0.19977 -12.6293 -1.80455 5.76873e-10 -3.82472e-10 2.38049e-10 9.95152e-10 -6.5723e-10 4.1686e-10 5.7688e-10 -3.82472e-10 2.38038e-10 7.73091 5.47488 0.417314 5.76873e-10 -3.82471e-10 2.38053e-10 2.90554 0.965183 0.102902 5.76879e-10 -3.82472e-10 2.38053e-10 10.2786 0.731801 0.0259123 5.76866e-10 -3.8247e-10 2.38057e-10 2.22167 -0.733487 -0.20892 -7.43476e-14 -2.36572e-14 8.05388e-15 -78.0325 22.114 0.0466369 18.3312 -11.0475 -34.7665 0.0154474 -3.37967 0.475676 -1.06683e-11 -2.43449e-10 7.91579e-12 -2.12153e-11 -4.23967e-10 1.34786e-11 -1.06753e-11 -2.43447e-10 7.92078e-12 -7.73091 5.47488 -0.417314 -1.06686e-11 -2.43447e-10 7.91778e-12 -2.90554 0.965183 -0.102902 -1.06731e-11 -2.43447e-10 7.91615e-12 -10.2786 0.731801 -0.0259123 -1.06674e-11 -2.43447e-10 7.91184e-12 -2.22167 -0.733487 0.20892 -2.03217e-16 0.0 -3.88251e-19 -9.74668 -51.7507 -12.9471 -1.18942 61.4948 1.55829 -0.66633 7.25416 -2.90969 2.03217e-16 0.0 3.88251e-19 -7.69647 -3.42465 -2.46858 0.0736226 33.4614 -1.20202 0.776604 -22.3727 -0.0747404
54.3494 118.495 8.90652 2.0447 -2.9133 -2.6115 -2.73476 12.6571 -3.22741 2.7865 -3.66152 -0.88135 -7.9506 1.00447 -2.11179 7.56698 7.53201 -2.65859 -0.0 0.0 0.0 -0.0 0.0 0.0 -7.45047e-14 4.38326e-14 2.17409e-14 75.3215 18.1573 -0.794429 -16.6802 -9.3349 31.122 -0.200455 -12.6517 -1.80786 3.5182e-10 4.47334e-11 -6.00187e-11 6.07748e-10 7.86547e-11 -1.00299e-10 3.51823e-10 4.47338e-11 -6.00332e-11 7.73091 5.47488 0.417314 3.5182e-10 4.47328e-11 -6.00129e-11 2.90554 0.965183 0.102902 3.51827e-10 4.47318e-11 -6.0015e-11 10.2786 0.731801 0.0259123 3.51814e-10 4.47337e-11 -6.00115e-11 2.22167 -0.733487 -0.20892 -7.45731e-14 4.38308e-14 2.15468e-14 -78.0763 22.4242 0.0337701 18.4365 -11.164 -35.0061 0.0127528 -3.02609 0.425822 7.84235e-11 4.78736e-10 -1.25679e-10 1.34753e-10 8.27922e-10 -2.18603e-10 7.84151e-11 4.78739e-10 -1.2567e-10 -7.73091 5.47488 -0.417314 7.84235e-11 4.78739e-10 -1.25678e-10 -2.90554 0.965183 -0.102902 7.84193e-11 4.78738e-10 -1.25679e-10 -10.2786 0.731801 -0.0259123 7.84233e-11 4.78736e-10 -1.25682e-10 -2.22167 -0.733487 0.20892 -2.03217e-16 0.0 -3.88251e-19 -9.26926 -50.7086 -12.7417 -1.00683 58.6 1.35151 -0.56221 8.97477 -2.90728 2.03217e-16 0.0 3.88251e-19 -7.30833 -2.7309 -2.31685 0.0766091 33.5521 -1.21201 0.576895 -22.7818 -0.502745
